<svg xmlns="http://www.w3.org/2000/svg" width="70.361" height="48.901" viewBox="0 0 70.361 48.901">
  <g id="Group_426" data-name="Group 426" transform="translate(0.5 0.5)">
    <path id="Path_128" data-name="Path 128" d="M64.143,10.527h-13.4L46.967,3.644A6.475,6.475,0,0,0,40.977,0H28.384a6.476,6.476,0,0,0-5.99,3.644l-3.776,6.883H5.218A5,5,0,0,0,0,15.262v27.9A5,5,0,0,0,5.218,47.9H64.143a5,5,0,0,0,5.218-4.735v-27.9a5,5,0,0,0-5.218-4.735m1.936,32.638a1.855,1.855,0,0,1-1.936,1.757H5.218a1.855,1.855,0,0,1-1.936-1.757v-27.9a1.855,1.855,0,0,1,1.936-1.757H19.634A1.667,1.667,0,0,0,21.1,12.68l4.257-7.76c.02-.038.039-.076.056-.115a3.188,3.188,0,0,1,2.967-1.827H40.977a3.188,3.188,0,0,1,2.967,1.827c.017.039.035.077.056.115l4.258,7.76a1.666,1.666,0,0,0,1.469.825H64.143a1.855,1.855,0,0,1,1.936,1.757Z" transform="translate(0 0)" fill="#333" stroke="#707070" stroke-width="1"/>
    <path id="Path_129" data-name="Path 129" d="M51.37,33.632C45.543,33.632,40.8,38.7,40.8,44.926S45.543,56.22,51.37,56.22s10.567-5.066,10.567-11.294S57.2,33.632,51.37,33.632m0,19.954a8.4,8.4,0,0,1-8.1-8.66,8.4,8.4,0,0,1,8.1-8.66,8.4,8.4,0,0,1,8.1,8.66,8.4,8.4,0,0,1-8.1,8.66" transform="translate(-16.688 -15.886)" fill="#333" stroke="#707070" stroke-width="1"/>
    <rect id="Rectangle_1337" data-name="Rectangle 1337" width="6.055" height="3.497" transform="translate(52.41 17.746)" fill="#333" stroke="#707070" stroke-width="1"/>
  </g>
</svg>
