<svg xmlns="http://www.w3.org/2000/svg" width="59.75" height="60" viewBox="0 0 59.75 60">
  <path id="service" d="M48.536,38.2l8-8h0c.25.5.75.5,1.25.5h6a1.781,1.781,0,0,0,1.5-.75l6-9a1.86,1.86,0,0,0-.25-2.249l-6-6a2.25,2.25,0,0,0-2.5-.25l-8.747,6a2.16,2.16,0,0,0-.75,1.5v6a1.909,1.909,0,0,0,.5,1.25h0l-5.248,5.248a18.158,18.158,0,0,0-10-18.493,16.816,16.816,0,0,0-11.5-1.25,3.854,3.854,0,0,0-3.5,2.5,1.911,1.911,0,0,0,.5,2.249l8.5,8.5a3,3,0,0,1,0,3.5l-3,3a3,3,0,0,1-3.5,0l-8.5-8.5a2.243,2.243,0,0,0-2.249-.5,6.663,6.663,0,0,0-2.5,3v.5c-.75,5.248,0,9.746,2.5,13.745A17.959,17.959,0,0,0,21.8,46.95l-7,7.247a10.581,10.581,0,0,0-3,7.5,11.779,11.779,0,0,0,3,7.5,10.559,10.559,0,0,0,14.744,0L43.288,55.947c.5-.5.75-.75.75-1.25L59.532,70.442c1.25.75,2.5,1.749,4.248,1.749a5.481,5.481,0,0,0,4.248-1.749l1.749-1.749c.75-1.25,1.749-2.5,1.749-4.248A5.481,5.481,0,0,0,69.778,60.2ZM57.283,20.96l6.5-4.5,3.749,3.749-4.748,7h-4l-1.5-1.749ZM40.539,52.948,26.794,66.193a6.828,6.828,0,0,1-4.748,2,6.719,6.719,0,0,1-4.5-2,6.828,6.828,0,0,1-2-4.748,6.245,6.245,0,0,1,2-4.748l8.5-8.747c.25,0,.5.25.75.25a17.824,17.824,0,0,0,9-.5l4.5,4.748A.774.774,0,0,1,40.539,52.948Zm26.74,13L65.53,67.693a3,3,0,0,1-3.5,0L38.79,44.2a1.376,1.376,0,0,0-1.25-.5h-.75c-3,1.749-6.5,2.249-9,1.25a14.745,14.745,0,0,1-9.5-6.5c-2.249-3-2.5-6.747-2.249-10.746L23.3,34.955a5.752,5.752,0,0,0,8.5,0l3-3a5.752,5.752,0,0,0,0-8.5l-7.247-7.247c3-.5,6-.5,9,1.25A14.312,14.312,0,0,1,43.288,36.7a1.911,1.911,0,0,0,.5,2.249L67.029,62.445a2.7,2.7,0,0,1,.75,1.749A1.545,1.545,0,0,1,67.279,65.943Z" transform="translate(-11.8 -12.191)" fill="#333"/>
</svg>
