<svg xmlns="http://www.w3.org/2000/svg" width="67.763" height="68" viewBox="0 0 67.763 68">
  <g id="Group_425" data-name="Group 425" transform="translate(0.616 -0.067)">
    <rect id="Rectangle_1296" data-name="Rectangle 1296" width="66.832" height="66.832" transform="translate(0.315 0.067)" fill="none"/>
    <path id="Path_119" data-name="Path 119" d="M63.7,28.808,59.619,33.3a5.817,5.817,0,0,0-1.425,3.03L57,43.965a3.688,3.688,0,0,1-.9,1.921L46.055,56.943a1.081,1.081,0,0,1-1.632,0l-1.17-1.288a1.363,1.363,0,0,1,0-1.8l7.464-8.218a1.106,1.106,0,0,0,0-1.459.877.877,0,0,0-1.325,0L41.928,52.4l0,0-1.254,1.381a1.1,1.1,0,0,1-1.632,0l-1.8-1.98a1.363,1.363,0,0,1,0-1.8L44.3,42.229l.244-.268a1.106,1.106,0,0,0,0-1.459.877.877,0,0,0-1.325,0l-8.361,9.2a1.1,1.1,0,0,1-1.632,0l-1.8-1.98a1.365,1.365,0,0,1,0-1.8l8.361-9.2a1.106,1.106,0,0,0,0-1.459.877.877,0,0,0-1.325,0l-7.308,8.045a1.1,1.1,0,0,1-1.631,0l-1.8-1.98a1.365,1.365,0,0,1,0-1.8L37.94,28.294a1.107,1.107,0,0,0,0-1.459.877.877,0,0,0-1.325,0l-1.727,1.9-3.445-3.792,2.837-3.123a3.093,3.093,0,0,1,2.407-1.044l7.2.276a4.891,4.891,0,0,0,3.8-1.647l3.735-4.112L50.1,13.835l-3.735,4.112a3.114,3.114,0,0,1-2.407,1.044l-7.205-.276a4.884,4.884,0,0,0-3.8,1.647l-2.837,3.124L29.674,23A18.5,18.5,0,0,0,25.984,5.042,14.72,14.72,0,0,0,9.6,1.011a1,1,0,0,0-.6.745,1.1,1.1,0,0,0,.252.955L16.687,10.9l-.17,2.329-4.5,4.959L9.9,18.372,2.461,10.185a.882.882,0,0,0-.867-.277.972.972,0,0,0-.677.658A18.6,18.6,0,0,0,4.579,28.607a14.648,14.648,0,0,0,16.31,4.063l5.237,5.765a3.53,3.53,0,0,0-.608,2,3.488,3.488,0,0,0,.887,2.357l1.8,1.98a2.974,2.974,0,0,0,1.233.823,3.587,3.587,0,0,0,.67,3.592l1.8,1.98a2.875,2.875,0,0,0,2.141.977,2.781,2.781,0,0,0,1.122-.237,3.393,3.393,0,0,0,.748,1.357l1.8,1.98a2.875,2.875,0,0,0,2.141.977,2.791,2.791,0,0,0,1.359-.356,3.383,3.383,0,0,0,.714,1.251L43.1,58.4a2.881,2.881,0,0,0,2.046.972l2.319,2.553a3.477,3.477,0,0,0,5.244,0l3.541-3.9a4.38,4.38,0,0,0,0-5.774l-1.642-1.807,2.817-3.1a5.821,5.821,0,0,0,1.425-3.03l1.192-7.633a3.686,3.686,0,0,1,.9-1.921l4.081-4.494Zm-42.576,1.63a.86.86,0,0,0-.347.074A12.882,12.882,0,0,1,5.9,27.148,16.319,16.319,0,0,1,2.247,12.867l6.632,7.3a.889.889,0,0,0,.738.3l2.891-.256a.9.9,0,0,0,.587-.3l4.991-5.5a1.08,1.08,0,0,0,.272-.647l.233-3.182a1.094,1.094,0,0,0-.272-.813l-6.632-7.3A13.03,13.03,0,0,1,24.659,6.5a16.3,16.3,0,0,1,3.055,16.373,1.109,1.109,0,0,0,.208,1.112l5.64,6.209L27.427,36.95l-5.64-6.21a.9.9,0,0,0-.663-.3m33.8,23.274a2.167,2.167,0,0,1,0,2.856l-3.541,3.9a1.72,1.72,0,0,1-2.594,0l-1.655-1.822a3.241,3.241,0,0,0,.247-.243l5.9-6.5Z" transform="translate(0.564 3.948)" fill="#333" stroke="#333" stroke-width="2"/>
  </g>
</svg>
