<svg xmlns="http://www.w3.org/2000/svg" xmlns:xlink="http://www.w3.org/1999/xlink" width="24" height="24" viewBox="0 0 24 24"><defs><clipPath id="a"><rect width="24" height="24" transform="translate(155 165)" fill="#ff1212" opacity="0.505"/></clipPath></defs><g transform="translate(-155 -165)" clip-path="url(#a)"><path d="M35.824,20.946A6.76,6.76,0,0,0,30.978,16.2c-2.322-.5-4.745.4-6.865,2.524C21.287,15.8,18.561,15.9,17.248,16.2A6.942,6.942,0,0,0,12.4,20.946a6.4,6.4,0,0,0,1.716,6.562l9.591,8.682a.732.732,0,0,0,1.01,0l9.59-8.682A6.7,6.7,0,0,0,35.824,20.946Z" transform="translate(142.885 150.944)" fill="#da2d53"/></g></svg>