<svg xmlns="http://www.w3.org/2000/svg" width="20" height="20" viewBox="0 0 20 20"><rect width="20" height="20" fill="none"/><g transform="translate(-0.094 -1.34)"><path d="M.757-.5h13.4A1.258,1.258,0,0,1,15.416.757V10.809a1.258,1.258,0,0,1-1.257,1.257H.757A1.258,1.258,0,0,1-.5,10.809V.757A1.258,1.258,0,0,1,.757-.5Zm13.4,11.728a.419.419,0,0,0,.419-.419V.757A.419.419,0,0,0,14.16.338H.757A.419.419,0,0,0,.338.757V10.809a.419.419,0,0,0,.419.419Z" transform="translate(2.594 5.84)" fill="#fff"/><path d="M13.458,24.364a.418.418,0,0,1-.232-.07L5.687,19.267a.419.419,0,0,1,.465-.7l7.307,4.871,7.307-4.871a.419.419,0,1,1,.465.7L13.69,24.293A.418.418,0,0,1,13.458,24.364Z" transform="translate(-3.406 -11.065)" fill="#fff"/><path d="M-.081,2.851a.418.418,0,0,1-.3-.123.419.419,0,0,1,0-.592L2.136-.377a.419.419,0,0,1,.592,0,.419.419,0,0,1,0,.592L.215,2.728A.418.418,0,0,1-.081,2.851Z" transform="translate(4.27 14.217)" fill="#fff"/><path d="M3.269,2.851a.417.417,0,0,1-.251-.084L-.332.254A.419.419,0,0,1-.416-.332.419.419,0,0,1,.17-.416L3.521,2.1a.419.419,0,0,1-.252.754Z" transform="translate(13.484 14.217)" fill="#fff"/></g></svg>