<svg xmlns="http://www.w3.org/2000/svg" xmlns:xlink="http://www.w3.org/1999/xlink" width="24" height="24" viewBox="0 0 24 24"><defs><clipPath id="a"><rect width="24" height="24" transform="translate(22 215)" fill="red" opacity="0.27"/></clipPath></defs><g transform="translate(-22 -215)"><g clip-path="url(#a)"><path d="M20.8,30.7a4.748,4.748,0,0,1-4.7-4.1L14.7,14.9a1.3,1.3,0,0,0-1.3-1.1h-.2a.7.7,0,0,1,0-1.4h.2a2.705,2.705,0,0,1,2.7,2.4l.1.6H32.6a2.518,2.518,0,0,1,2,.9,2.863,2.863,0,0,1,.6,2.2l-.8,4.3a4.8,4.8,0,0,1-4.6,3.9H17.6l.2.4a3.246,3.246,0,0,0,3.1,2.2H31.3a.7.7,0,0,1,0,1.4Zm-3.4-5.4H29.9a3.15,3.15,0,0,0,3.2-2.8l.8-4.4v-.2a1.324,1.324,0,0,0-1.3-1.3H16.4Zm1.9,6.4a2,2,0,1,1-2,2A2.006,2.006,0,0,1,19.3,31.7Zm10,0a2,2,0,1,1-2,2A2.006,2.006,0,0,1,29.3,31.7Z" transform="translate(10 202.6)" fill="#fff"/></g></g></svg>