<svg xmlns="http://www.w3.org/2000/svg" xmlns:xlink="http://www.w3.org/1999/xlink" width="20" height="20" viewBox="0 0 20 20"><defs><clipPath id="a"><rect width="20" height="20" transform="translate(181 168)" fill="#ff1212" opacity="0.505"/></clipPath></defs><g transform="translate(-181 -168)" clip-path="url(#a)"><path d="M31.872,20.131a5.634,5.634,0,0,0-4.038-3.954c-1.935-.421-3.954.337-5.721,2.1-2.356-2.44-4.627-2.356-5.721-2.1a5.785,5.785,0,0,0-4.038,3.954,5.33,5.33,0,0,0,1.43,5.468l7.992,7.235a.61.61,0,0,0,.841,0L30.61,25.6A5.58,5.58,0,0,0,31.872,20.131Zm-2.187,4.543-7.571,6.814-7.487-6.814a4.251,4.251,0,0,1-1.094-4.206,4.32,4.32,0,0,1,3.113-3.113,2.329,2.329,0,0,1,.757-.084,5.886,5.886,0,0,1,4.206,2.356.66.66,0,0,0,.925,0c1.6-1.767,3.365-2.608,4.964-2.187a4.32,4.32,0,0,1,3.113,3.113A3.911,3.911,0,0,1,29.685,24.674Z" transform="translate(168.885 153.944)" fill="#333"/></g></svg>