<svg xmlns="http://www.w3.org/2000/svg" xmlns:xlink="http://www.w3.org/1999/xlink" width="24" height="24" viewBox="0 0 24 24"><defs><clipPath id="a"><rect width="24" height="24" transform="translate(118 165)" fill="#ff1212" opacity="0.505"/></clipPath></defs><g transform="translate(-118 -165)" clip-path="url(#a)"><path d="M35.824,20.946A6.76,6.76,0,0,0,30.978,16.2c-2.322-.5-4.745.4-6.865,2.524C21.287,15.8,18.561,15.9,17.248,16.2A6.942,6.942,0,0,0,12.4,20.946a6.4,6.4,0,0,0,1.716,6.562l9.591,8.682a.732.732,0,0,0,1.01,0l9.59-8.682A6.7,6.7,0,0,0,35.824,20.946ZM33.2,26.4l-9.086,8.177L15.128,26.4a5.1,5.1,0,0,1-1.312-5.048,5.183,5.183,0,0,1,3.735-3.735,2.8,2.8,0,0,1,.909-.1c1.716,0,3.432,1.01,5.048,2.827a.792.792,0,0,0,1.11,0c1.918-2.12,4.038-3.13,5.956-2.625a5.183,5.183,0,0,1,3.735,3.735A4.694,4.694,0,0,1,33.2,26.4Z" transform="translate(105.885 151.082)" fill="#707070"/></g></svg>