<svg xmlns="http://www.w3.org/2000/svg" xmlns:xlink="http://www.w3.org/1999/xlink" width="20" height="20" viewBox="0 0 20 20"><defs><clipPath id="a"><rect width="20" height="20" transform="translate(204 168)" fill="#ff1212" opacity="0.505"/></clipPath></defs><g transform="translate(-204 -168)" clip-path="url(#a)"><path d="M31.872,20.131a5.634,5.634,0,0,0-4.038-3.954c-1.935-.421-3.954.337-5.721,2.1-2.356-2.44-4.627-2.356-5.721-2.1a5.785,5.785,0,0,0-4.038,3.954,5.33,5.33,0,0,0,1.43,5.468l7.992,7.235a.61.61,0,0,0,.841,0L30.61,25.6A5.58,5.58,0,0,0,31.872,20.131Z" transform="translate(191.885 153.944)" fill="#da2d53"/></g></svg>