<svg xmlns="http://www.w3.org/2000/svg" width="23.6" height="17.794" viewBox="0 0 23.6 17.794">
  <g id="free" transform="translate(-11.4 -13.8)">
    <g id="Group_106" data-name="Group 106" transform="translate(11.4 13.8)">
      <path id="Path_36" data-name="Path 36" d="M19.4,32.394a3,3,0,1,1,3-3A2.958,2.958,0,0,1,19.4,32.394Zm0-4.5a1.5,1.5,0,1,0,1.5,1.5A1.479,1.479,0,0,0,19.4,27.9Z" transform="translate(-11.717 -14.6)" fill="red"/>
      <path id="Path_37" data-name="Path 37" d="M30.3,32.394a3,3,0,1,1,3-3A2.958,2.958,0,0,1,30.3,32.394Zm0-4.5a1.5,1.5,0,1,0,1.5,1.5A1.479,1.479,0,0,0,30.3,27.9Z" transform="translate(-12.41 -14.6)" fill="red"/>
      <path id="Path_38" data-name="Path 38" d="M35.248,29.46H32.532a.749.749,0,0,1,0-1.5H34.5v-3.84l-1.03-1.4c0-.094-.094-.094-.094-.187L31.127,17.1H27.849a.749.749,0,0,1,0-1.5H31.6a.7.7,0,0,1,.656.468l2.435,5.806,1.124,1.5a.715.715,0,0,1,.187.468v4.87A.806.806,0,0,1,35.248,29.46Z" transform="translate(-12.397 -13.914)" fill="red"/>
      <path id="Path_39" data-name="Path 39" d="M27.668,30.3H22.049a.749.749,0,0,1,0-1.5h5.619a.749.749,0,0,1,0,1.5Z" transform="translate(-12.029 -14.752)" fill="red"/>
      <path id="Path_40" data-name="Path 40" d="M16.832,29.346H12.149A.806.806,0,0,1,11.4,28.6V14.549a.806.806,0,0,1,.749-.749H26.665a.806.806,0,0,1,.749.749V21.2h4.963a.749.749,0,1,1,0,1.5H26.665a.806.806,0,0,1-.749-.749V15.3H12.9V27.848h3.933a.749.749,0,0,1,0,1.5Z" transform="translate(-11.4 -13.8)" fill="red"/>
    </g>
    <g id="Group_107" data-name="Group 107" transform="translate(14.303 17.265)">
      <path id="Path_41" data-name="Path 41" d="M16.279,22.476h-1.5v-.749h1.5v-.468h-1.5V20.51H15.9L14.5,17.7H16l.468,1.217c.187.468.281.843.468,1.311h0c.187-.468.281-.843.468-1.311l.468-1.217h1.5l-1.4,2.81h1.124v.749H17.778v.468h1.5v.749h-1.5v1.4h-1.5Z" transform="translate(-14.5 -17.513)" fill="red"/>
      <path id="Path_42" data-name="Path 42" d="M20.4,20.684c0-2.154.937-3.184,2.248-3.184S24.9,18.624,24.9,20.684c0,2.154-.937,3.278-2.248,3.278S20.4,22.838,20.4,20.684Zm3,0c0-1.686-.375-2.06-.843-2.06s-.843.375-.843,2.06.375,2.154.843,2.154S23.4,22.463,23.4,20.684Z" transform="translate(-14.875 -17.5)" fill="red"/>
    </g>
  </g>
</svg>
