<svg xmlns="http://www.w3.org/2000/svg" width="70.108" height="86.8" viewBox="0 0 70.108 86.8">
  <g id="_xFF91_饑1" transform="translate(-11.4 -8.6)">
    <path id="Path_255" data-name="Path 255" d="M28.669,26.664A1.8,1.8,0,0,1,27,24.995V22.769a1.669,1.669,0,1,1,3.338,0v2.226A1.475,1.475,0,0,1,28.669,26.664Z" transform="translate(27.8 22.276)" fill="#333"/>
    <path id="Path_256" data-name="Path 256" d="M54.936,34.327a1.8,1.8,0,0,1-1.669-1.669V29.876a9.857,9.857,0,0,0-9.737-9.737H29.9a9.62,9.62,0,0,0-9.459,9.737v2.782a1.8,1.8,0,0,1-1.669,1.669A1.8,1.8,0,0,1,17.1,32.658V29.876A13,13,0,0,1,29.9,16.8H43.529A13.06,13.06,0,0,1,56.605,29.876v2.782A1.6,1.6,0,0,1,54.936,34.327Z" transform="translate(10.158 14.613)" fill="#333"/>
    <path id="Path_257" data-name="Path 257" d="M21.769,26.664A1.8,1.8,0,0,1,20.1,24.995V22.769A1.8,1.8,0,0,1,21.769,21.1a1.8,1.8,0,0,1,1.669,1.669v2.226A1.475,1.475,0,0,1,21.769,26.664Z" transform="translate(15.504 22.276)" fill="#333"/>
    <path id="Path_258" data-name="Path 258" d="M17.242,67.778a1.8,1.8,0,0,1-1.669-1.669v-30.6h-2.5A1.8,1.8,0,0,1,11.4,33.837V25.769A1.8,1.8,0,0,1,13.069,24.1H79.838a1.8,1.8,0,0,1,1.669,1.669v8.068a1.8,1.8,0,0,1-1.669,1.669h-2.5v30.6a1.8,1.8,0,0,1-1.669,1.669Zm1.669-3.338H74V35.506H18.912ZM14.738,32.168H78.169V27.438H14.738Z" transform="translate(0 27.622)" fill="#333"/>
    <path id="Path_259" data-name="Path 259" d="M30.259,27.518A9.381,9.381,0,0,1,20.8,18.059a9.321,9.321,0,1,1,18.64,0A9.15,9.15,0,0,1,30.259,27.518Zm0-15.3a5.777,5.777,0,0,0-5.842,6.121,5.842,5.842,0,0,0,6.121,6.121,5.777,5.777,0,0,0,5.842-6.121A6,6,0,0,0,30.259,12.217Z" transform="translate(16.751 0)" fill="#333"/>
  </g>
</svg>
