<svg xmlns="http://www.w3.org/2000/svg" width="81.236" height="81.222" viewBox="0 0 81.236 81.222">
  <g id="Group_424" data-name="Group 424" transform="translate(-379.253 -91.294)">
    <path id="Path_118" data-name="Path 118" d="M62.986,33.684a17.331,17.331,0,0,0,22-22.24,1.178,1.178,0,0,0-1.941-.434L75.455,18.6,69.6,16.4l-2.2-5.856,7.592-7.592a1.178,1.178,0,0,0-.434-1.941,17.33,17.33,0,0,0-22.24,22L28.81,46.525a17.331,17.331,0,0,0-22,22.24,1.178,1.178,0,0,0,1.941.434l7.592-7.592,5.856,2.2,2.2,5.856L16.8,77.254a1.178,1.178,0,0,0,.434,1.941,17.33,17.33,0,0,0,22.24-22ZM33.7,73.479a15.052,15.052,0,0,1-13.819,4.03L26.6,70.791a1.178,1.178,0,0,0,.27-1.246l-2.653-7.067a1.178,1.178,0,0,0-.688-.689l-7.067-2.653a1.177,1.177,0,0,0-1.246.27L8.494,66.124A14.973,14.973,0,0,1,28.671,48.987a1.176,1.176,0,0,0,1.269-.261L54.519,24.147a1.178,1.178,0,0,0,.261-1.269A14.973,14.973,0,0,1,71.917,2.7L65.2,9.419a1.177,1.177,0,0,0-.27,1.246l2.654,7.067a1.178,1.178,0,0,0,.688.688l7.067,2.653a1.177,1.177,0,0,0,1.246-.27L83.3,14.086A14.973,14.973,0,0,1,63.125,31.222a1.179,1.179,0,0,0-1.269.261L37.277,56.063a1.178,1.178,0,0,0-.261,1.269A14.964,14.964,0,0,1,33.7,73.479" transform="translate(373.973 91.807)" fill="#333" stroke="#333" stroke-width="1"/>
  </g>
</svg>
