<svg xmlns="http://www.w3.org/2000/svg" width="40" height="40" viewBox="0 0 40 40"><g transform="translate(-143 -1372)"><rect width="40" height="40" transform="translate(143 1372)" fill="none"/><g transform="translate(-68 -55)"><rect width="2.032" height="1.092" transform="translate(222.333 1449.411)" fill="#235192" stroke="#235192" stroke-width="0.5"/><path d="M80.393,126.037a4.893,4.893,0,0,1,0,1.092H91.612a4.892,4.892,0,0,1,0-1.092Z" transform="translate(145.119 1330.147)" fill="#235192" stroke="#235192" stroke-width="0.5"/><path d="M37.523,42.288H15v-7.81a1.14,1.14,0,0,0-1.139-1.139H8.419a2.85,2.85,0,0,0-2.6,1.336L.885,41.557A4.546,4.546,0,0,0,0,44.241v3.714a2.059,2.059,0,0,0,2.056,2.056H3.6a4.919,4.919,0,0,1,0-1.092H2.056a.965.965,0,0,1-.964-.964V47.9H3.821A4.964,4.964,0,0,1,4.34,46.8H1.092V44.241A3.453,3.453,0,0,1,1.768,42.2l4.95-6.9.013-.02a1.76,1.76,0,0,1,1.687-.851h5.439a.047.047,0,0,1,.047.047v8.356a.546.546,0,0,0,.546.546H36.977V46.8H33.9a4.971,4.971,0,0,1,.519,1.092h2.555v.416a1.043,1.043,0,0,1-.964.607H34.646a4.919,4.919,0,0,1,0,1.092h1.367a2.029,2.029,0,0,0,2.056-1.7V42.834a.546.546,0,0,0-.546-.546" transform="translate(212 1407.265)" fill="#235192" stroke="#235192" stroke-width="0.5"/><path d="M76.492,114.538H88.159a4.964,4.964,0,0,1,.519-1.092h-12.7a4.964,4.964,0,0,1,.519,1.092" transform="translate(148.796 1340.622)" fill="#235192" stroke="#235192" stroke-width="0.5"/><path d="M33.615,49.625l0-4.644a.546.546,0,0,0-.546-.546H28.9a1.012,1.012,0,0,0-1.039.5L24.724,49.31a.546.546,0,0,0,.444.865h7.9a.559.559,0,0,0,.385-.159.547.547,0,0,0,.164-.391m-7.383-.542,2.5-3.486.01-.015.031-.046,0-.005c.029,0,.069,0,.124,0h3.617l0,3.555Z" transform="translate(191.517 1398.033)" fill="#235192" stroke="#235192" stroke-width="0.5"/><path d="M113.905,0H94.978a1.737,1.737,0,0,0-1.735,1.735V13.322a.546.546,0,0,0,.546.546h21.3a.546.546,0,0,0,.546-.546V1.735A1.737,1.737,0,0,0,113.905,0m.643,12.775H94.335V1.735a.644.644,0,0,1,.643-.643h18.927a.644.644,0,0,1,.643.643Z" transform="translate(134.429 1435)" fill="#235192" stroke="#235192" stroke-width="0.5"/><path d="M31.822,106.36a3.854,3.854,0,1,0,3.854,3.853,3.858,3.858,0,0,0-3.854-3.853m0,6.615a2.761,2.761,0,1,1,2.761-2.761,2.764,2.764,0,0,1-2.761,2.761" transform="translate(188.732 1346.516)" fill="#235192" stroke="#235192" stroke-width="0.5"/><path d="M157.694,106.36a3.854,3.854,0,1,0,3.854,3.853,3.858,3.858,0,0,0-3.854-3.853m0,6.615a2.761,2.761,0,1,1,2.761-2.761,2.764,2.764,0,0,1-2.761,2.761" transform="translate(84.017 1346.516)" fill="#235192" stroke="#235192" stroke-width="0.5"/></g></g></svg>