<svg xmlns="http://www.w3.org/2000/svg" width="40" height="40" viewBox="0 0 40 40"><g transform="translate(-75 -432)"><rect width="40" height="40" transform="translate(75 432)" fill="none"/><g transform="translate(-310.348 95)"><path d="M134.865,38.773a1.854,1.854,0,1,0,1.854,1.854,1.856,1.856,0,0,0-1.854-1.854" transform="translate(262.327 313.951)" fill="#235192" stroke="#235192" stroke-width="0.3"/><path d="M160.865,38.773a1.854,1.854,0,1,0,1.854,1.854,1.856,1.856,0,0,0-1.854-1.854" transform="translate(244.189 313.951)" fill="#235192" stroke="#235192" stroke-width="0.3"/><g transform="translate(386.348 341)"><path d="M121.988,0c-10.315,0-18.706,6.129-18.706,13.664,0,6.866,6.758,12.526,15.911,13.51a7.3,7.3,0,0,1-1.492,2.773,1.058,1.058,0,0,0,.742,1.747q.272.015.542.015a9.439,9.439,0,0,0,8.275-4.932c7.937-1.69,13.434-7.027,13.434-13.114C140.694,6.128,132.3,0,121.988,0m4.362,24.8a1.059,1.059,0,0,0-.76.589,7.338,7.338,0,0,1-5.007,4.023,9.491,9.491,0,0,0,.933-3.06,1.059,1.059,0,0,0-.985-1.191c-8.485-.518-15.132-5.569-15.132-11.5,0-6.367,7.442-11.547,16.589-11.547s16.589,5.18,16.589,11.547c0,5.186-5.028,9.767-12.228,11.139" transform="translate(-103.282 0.001)" fill="#235192" stroke="#235192" stroke-width="0.3"/><path d="M118.985,32.209c-.188,0-.38-.005-.57-.016a1.558,1.558,0,0,1-1.093-2.573,6.751,6.751,0,0,0,1.2-2.023c-9.161-1.2-15.745-6.991-15.745-13.934a10.98,10.98,0,0,1,1.54-5.564,14.826,14.826,0,0,1,4.15-4.5,24.314,24.314,0,0,1,27.032,0,14.826,14.826,0,0,1,4.15,4.5,10.98,10.98,0,0,1,1.54,5.564,10.87,10.87,0,0,1-1.029,4.589,13.463,13.463,0,0,1-2.863,3.975,20.037,20.037,0,0,1-9.716,4.991,9.967,9.967,0,0,1-4.732,4.2A9.84,9.84,0,0,1,118.985,32.209Zm3-31.71a22,22,0,0,0-12.926,3.91c-3.4,2.487-5.28,5.773-5.28,9.254a10.072,10.072,0,0,0,1.144,4.64,12.925,12.925,0,0,0,3.2,3.938,20.741,20.741,0,0,0,11.119,4.434l.589.063-.162.57a7.755,7.755,0,0,1-1.594,2.963.558.558,0,0,0,.392.922,8.846,8.846,0,0,0,3.992-.7,8.961,8.961,0,0,0,4.357-3.958l.11-.2.225-.048a21.587,21.587,0,0,0,5.324-1.862,16.886,16.886,0,0,0,4.124-2.915,12.469,12.469,0,0,0,2.653-3.678,9.877,9.877,0,0,0,.937-4.17c0-3.48-1.875-6.767-5.28-9.254A22,22,0,0,0,121.988.5Zm-2.327,29.637.476-.947a8.976,8.976,0,0,0,.883-2.9.559.559,0,0,0-.52-.629,20.391,20.391,0,0,1-11.02-3.821c-2.954-2.245-4.581-5.149-4.581-8.177a9.041,9.041,0,0,1,1.379-4.75,12.848,12.848,0,0,1,3.7-3.821,22.49,22.49,0,0,1,24.021,0,12.849,12.849,0,0,1,3.7,3.821,9.041,9.041,0,0,1,1.379,4.75c0,5.43-5.2,10.212-12.634,11.63a.561.561,0,0,0-.4.311,7.805,7.805,0,0,1-4.015,3.865,7.891,7.891,0,0,1-1.333.432Zm2.327-27.52a20.152,20.152,0,0,0-11.439,3.3c-3,2.087-4.65,4.84-4.65,7.751,0,2.708,1.487,5.329,4.186,7.381a19.385,19.385,0,0,0,10.476,3.619,1.559,1.559,0,0,1,1.451,1.754,10.023,10.023,0,0,1-.538,2.2l.162-.066a6.807,6.807,0,0,0,3.5-3.371,1.564,1.564,0,0,1,1.118-.867c6.96-1.326,11.821-5.7,11.821-10.647,0-2.911-1.651-5.664-4.65-7.751A20.153,20.153,0,0,0,121.988,2.616Z" transform="translate(-103.282 0.001)" fill="#235192"/><path d="M186.865,38.773a1.854,1.854,0,1,0,1.854,1.854,1.856,1.856,0,0,0-1.854-1.854" transform="translate(-160.297 -27.049)" fill="#235192"/><path d="M186.865,42.981a2.354,2.354,0,1,1,2.354-2.354A2.356,2.356,0,0,1,186.865,42.981Zm0-3.708a1.354,1.354,0,1,0,1.354,1.354A1.355,1.355,0,0,0,186.865,39.273Z" transform="translate(-160.297 -27.049)" fill="#235192"/></g></g></g></svg>