<svg xmlns="http://www.w3.org/2000/svg" width="40" height="40" viewBox="0 0 40 40"><g transform="translate(-243 -655)"><rect width="40" height="40" transform="translate(243 655)" fill="none"/><g transform="translate(-169 62)"><path d="M34.061,6.16H26.946L24.94,2.133A3.42,3.42,0,0,0,21.76,0H15.073a3.421,3.421,0,0,0-3.181,2.133L9.887,6.16H2.771A2.774,2.774,0,0,0,0,8.931V25.26a2.774,2.774,0,0,0,2.771,2.771h31.29a2.774,2.774,0,0,0,2.771-2.771V8.931A2.774,2.774,0,0,0,34.061,6.16m1.028,19.1a1.029,1.029,0,0,1-1.028,1.028H2.771A1.029,1.029,0,0,1,1.743,25.26V8.931A1.029,1.029,0,0,1,2.771,7.9h7.655a.872.872,0,0,0,.78-.483l2.261-4.541c.011-.022.021-.044.03-.067a1.686,1.686,0,0,1,1.576-1.069H21.76a1.686,1.686,0,0,1,1.575,1.069c.009.023.019.045.03.067L25.626,7.42a.872.872,0,0,0,.78.483h7.655a1.029,1.029,0,0,1,1.028,1.028Z" transform="translate(414 599)" fill="#235192" stroke="#235192" stroke-width="1"/><path d="M48.278,33.632a7.475,7.475,0,1,0,7.475,7.475,7.483,7.483,0,0,0-7.475-7.475m0,13.206a5.732,5.732,0,1,1,5.732-5.732,5.738,5.738,0,0,1-5.732,5.732" transform="translate(384.139 574.387)" fill="#235192" stroke="#235192" stroke-width="1"/><rect width="3.876" height="2.153" transform="translate(442.765 609.119)" fill="#235192" stroke="#235192" stroke-width="1"/></g></g></svg>