<svg xmlns="http://www.w3.org/2000/svg" width="40" height="40" viewBox="0 0 40 40"><g transform="translate(-128 -1104)"><rect width="40" height="40" transform="translate(128 1104)" fill="none"/><path d="M30.319,13.154H19.81l9.536-6.623a.47.47,0,0,0,0-.769L21.295.085a.469.469,0,0,0-.706.208L15.394,13.143,10.2.293A.469.469,0,0,0,9.494.085L1.44,5.761a.47.47,0,0,0,0,.769l9.536,6.623H.47a.47.47,0,0,0-.47.47V36.471a.47.47,0,0,0,.47.47H30.319a.47.47,0,0,0,.47-.47V13.623a.47.47,0,0,0-.47-.47m-.47.939Zm-10.2,0Zm1.592-12.9,7.021,4.948-10.1,7.011H16.4Zm-11.687,0,4.835,11.959H12.625L2.53,6.142Zm1.592,12.9Zm-10.2,0ZM.939,36Zm10.2,0Zm.939-21.909h6.625V36H12.082ZM19.646,36Zm10.2,0Z" transform="translate(132.5 1105.5)" fill="#235192" stroke="#235192" stroke-width="1"/></g></svg>