<svg xmlns="http://www.w3.org/2000/svg" width="40.106" height="40" viewBox="0 0 40.106 40"><g transform="translate(-172.894 -314)"><rect width="40" height="40" transform="translate(173 314)" fill="none"/><path d="M37.072,15.229,34.7,17.6a2.964,2.964,0,0,0-.829,1.6l-.694,4.035a1.879,1.879,0,0,1-.526,1.015L26.8,30.1a.671.671,0,0,1-.95,0l-.681-.681a.672.672,0,0,1,0-.95l4.344-4.344a.545.545,0,0,0-.771-.771L24.4,27.7l0,0-.73.73a.688.688,0,0,1-.95,0l-1.047-1.047a.671.671,0,0,1,0-.95l4.111-4.111.142-.142a.545.545,0,1,0-.771-.771l-4.866,4.866a.687.687,0,0,1-.95,0L18.292,25.23a.673.673,0,0,1,0-.95l4.866-4.866a.545.545,0,0,0-.771-.771L18.134,22.9a.688.688,0,0,1-.949,0L16.138,21.85a.672.672,0,0,1,0-.95l5.942-5.942a.545.545,0,1,0-.771-.771L20.3,15.191l-2-2,1.651-1.651a1.889,1.889,0,0,1,1.4-.552l4.193.146a2.987,2.987,0,0,0,2.21-.871l2.174-2.174-.771-.771L26.983,9.488a1.9,1.9,0,0,1-1.4.552l-4.193-.146a2.982,2.982,0,0,0-2.21.871l-1.651,1.651-.258-.258A9.118,9.118,0,0,0,5.585.534a.545.545,0,0,0-.2.9L9.711,5.761l-.1,1.231L6.991,9.613l-1.231.1L1.432,5.384a.545.545,0,0,0-.9.2A9.118,9.118,0,0,0,12.157,17.271L15.2,20.318a1.758,1.758,0,0,0,.162,2.3l1.047,1.047a1.752,1.752,0,0,0,.718.435,1.764,1.764,0,0,0,.39,1.9l1.047,1.047a1.761,1.761,0,0,0,1.9.391,1.754,1.754,0,0,0,.435.717L21.948,29.2a1.759,1.759,0,0,0,2.037.328,1.755,1.755,0,0,0,.415.661l.681.681a1.749,1.749,0,0,0,1.191.514l1.349,1.349a2.161,2.161,0,0,0,3.052,0l2.061-2.061a2.158,2.158,0,0,0,0-3.052l-.955-.955,1.639-1.639a2.966,2.966,0,0,0,.829-1.6l.694-4.035a1.878,1.878,0,0,1,.526-1.015L37.843,16Zm-24.779.862a.544.544,0,0,0-.2.039A8.027,8.027,0,0,1,1.307,6.8l3.86,3.86a.545.545,0,0,0,.429.158l1.682-.135a.545.545,0,0,0,.342-.158l2.9-2.9a.545.545,0,0,0,.158-.342L10.819,5.6a.546.546,0,0,0-.158-.43L6.8,1.308a8.027,8.027,0,0,1,9.328,10.784.546.546,0,0,0,.121.588l3.283,3.282-3.571,3.571-3.282-3.283a.546.546,0,0,0-.386-.16m19.67,12.3a1.068,1.068,0,0,1,0,1.51L29.9,31.965a1.069,1.069,0,0,1-1.51,0L27.43,31a1.815,1.815,0,0,0,.144-.128l3.434-3.434Z" transform="translate(173.5 317.5)" fill="#235192" stroke="#235192" stroke-width="1"/></g></svg>