<svg xmlns="http://www.w3.org/2000/svg" width="40" height="40" viewBox="0 0 40 40"><g transform="translate(-89 -346)"><rect width="40" height="40" transform="translate(89 346)" fill="none"/><g transform="translate(-53 -61)"><path d="M19.6,0H9.233a.608.608,0,0,0-.391.144.268.268,0,0,0-.031.026L8.8.182l0,0L.176,8.96a.35.35,0,0,0-.04.05A.609.609,0,0,0,0,9.39V26.84a3.383,3.383,0,0,0,3.379,3.379H11.7a8.431,8.431,0,0,1-.206-1.228H3.379A2.154,2.154,0,0,1,1.228,26.84V10h5.24A3.383,3.383,0,0,0,9.847,6.625v-5.4H19.6a2.154,2.154,0,0,1,2.151,2.151V19.916a8.4,8.4,0,0,1,1.228.369V3.379A3.383,3.383,0,0,0,19.6,0M8.619,6.625A2.154,2.154,0,0,1,6.468,8.776H2.078l6.541-6.66Z" transform="translate(149 410)" fill="#235192" stroke="#235192" stroke-width="1"/><path d="M92.419,153.046a6.8,6.8,0,1,1,6.8-6.8,6.8,6.8,0,0,1-6.8,6.8m0-12.365a5.568,5.568,0,1,0,5.568,5.568,5.575,5.575,0,0,0-5.568-5.568" transform="translate(76.521 291.954)" fill="#235192" stroke="#235192" stroke-width="1"/><path d="M108.448,172.74l-2.914-2.915,1.085-1.085,1.829,1.829,3.48-3.48,1.085,1.085Z" transform="translate(59.667 268.561)" fill="#235192" stroke="#235192" stroke-width="1"/></g></g></svg>