<svg xmlns="http://www.w3.org/2000/svg" width="40" height="40" viewBox="0 0 40 40"><g transform="translate(-227 -722)"><rect width="40" height="40" transform="translate(227 722)" fill="none"/><g transform="translate(-152 34.134)"><path d="M1.062,12.887H14.444V24.151h1.062V12.356a.531.531,0,0,0-.531-.531H.531A.531.531,0,0,0,0,12.356V37.238a.531.531,0,0,0,.531.531H.606v.863a.531.531,0,0,0,.531.531H3.822a.531.531,0,0,0,.531-.531v-.863H8.021V36.707H1.062V29.1H4.08l.9,1.668H8.021V29.707H5.612L5.286,29.1H8.021V28.039H1.062Zm.606,24.882H3.291V38.1H1.668Z" transform="translate(380 680.973)" fill="#235192" stroke="#235192" stroke-width="1"/><path d="M168.565,7.983,167.027.425a.531.531,0,0,0-.52-.425h-7.174a.531.531,0,0,0-.52.425l-1.538,7.558a.531.531,0,0,0,.52.637h4.595v5.638h1.062V8.62s4.9-.072,5.005-.2a.53.53,0,0,0,.109-.442m-10.121-.425,1.322-6.5h6.306l1.322,6.5Z" transform="translate(248.433 690.866)" fill="#235192" stroke="#235192" stroke-width="1"/><path d="M84.1,95.692H58.051a.531.531,0,0,0-.531.531v15.813a.531.531,0,0,0,.531.531h.782l-.969,1.536a.531.531,0,0,0,.449.814h2.464a.531.531,0,0,0,.449-.248l1.326-2.1h17.04l1.326,2.1a.531.531,0,0,0,.449.248h2.464a.531.531,0,0,0,.449-.814l-.969-1.536H84.1a.531.531,0,0,0,.531-.531V96.223a.531.531,0,0,0-.531-.531M60.484,113.856H59.276l.813-1.289H61.3Zm22.386,0H81.662l-.813-1.289h1.208Zm.694-2.351H58.582V96.754h5.971L61.11,100.2l.751.751,4.194-4.194h2.812L60.8,104.822l.751.751,8.818-8.819h13.2Z" transform="translate(331.878 610.809)" fill="#235192" stroke="#235192" stroke-width="1"/></g></g></svg>