<svg xmlns="http://www.w3.org/2000/svg" width="40" height="40" viewBox="0 0 40 40"><g transform="translate(-143 -1823)"><rect width="40" height="40" transform="translate(143 1823)" fill="none"/><g transform="translate(-71.404 -39.127)"><path d="M27.03,95.512V86.376a7.306,7.306,0,0,0-7.3-7.3H10.7a7.306,7.306,0,0,0-7.3,7.3v9.136m1.081-9.136A6.224,6.224,0,0,1,10.7,80.159h9.031a6.224,6.224,0,0,1,6.217,6.217v7.616H4.484Z" transform="translate(214 1801.197)" fill="#235192" stroke="#235192" stroke-width="1"/><path d="M63.259,11.918a5.642,5.642,0,0,0,5.635-5.635V5.635a5.635,5.635,0,1,0-11.271,0v.647a5.642,5.642,0,0,0,5.635,5.635M58.7,5.635a4.555,4.555,0,1,1,9.109,0v.647a4.555,4.555,0,1,1-9.109,0Z" transform="translate(165.957 1867.127)" fill="#235192" stroke="#235192" stroke-width="1"/><path d="M161.553,11.942h-8.959a1.818,1.818,0,0,0-1.816,1.816V18a1.819,1.819,0,0,0,1.543,1.8l-.645,1.512a.54.54,0,0,0,.735.7l4.46-2.189h4.682A1.818,1.818,0,0,0,163.369,18V13.758a1.818,1.818,0,0,0-1.816-1.816M162.288,18a.736.736,0,0,1-.735.735h-4.807a.54.54,0,0,0-.238.055l-3.266,1.6C153.7,19.316,151.859,18,151.859,18V13.758a.736.736,0,0,1,.735-.735h8.959a.736.736,0,0,1,.735.735Z" transform="translate(88.293 1857.171)" fill="#235192" stroke="#235192" stroke-width="1"/><path d="M168.521,31.6a.646.646,0,1,0,.646.646.646.646,0,0,0-.646-.646" transform="translate(74.039 1840.784)" fill="#235192" stroke="#235192" stroke-width="1"/><path d="M185.4,31.6a.646.646,0,1,0,.646.646.646.646,0,0,0-.646-.646" transform="translate(59.969 1840.784)" fill="#235192" stroke="#235192" stroke-width="1"/><path d="M202.274,31.6a.646.646,0,1,0,.646.646.646.646,0,0,0-.646-.646" transform="translate(45.898 1840.784)" fill="#235192" stroke="#235192" stroke-width="1"/></g></g></svg>