<svg xmlns="http://www.w3.org/2000/svg" width="40" height="40" viewBox="0 0 40 40"><g transform="translate(-251 -843)"><rect width="40" height="40" transform="translate(251 843)" fill="none"/><g transform="translate(-182.022 61)"><rect width="4.04" height="1.099" transform="translate(454.634 784.654)" fill="#235192" stroke="#235192" stroke-width="1"/><rect width="4.04" height="1.099" transform="translate(447.549 784.654)" fill="#235192" stroke="#235192" stroke-width="1"/><path d="M23.8,9.782H22.7v1.1H23.8a3.28,3.28,0,0,1,3.276,3.276v27.9A3.28,3.28,0,0,1,23.8,45.338H4.376A3.28,3.28,0,0,1,1.1,42.062v-27.9a3.28,3.28,0,0,1,3.276-3.276H5.482v-1.1H4.376A4.381,4.381,0,0,0,0,14.158v27.9a4.381,4.381,0,0,0,4.376,4.375H23.8a4.38,4.38,0,0,0,4.375-4.375v-27.9A4.38,4.38,0,0,0,23.8,9.782" transform="translate(439.022 774.872)" fill="#235192" stroke="#235192" stroke-width="1"/><rect width="20.087" height="1.099" transform="translate(443.068 797.566)" fill="#235192" stroke="#235192" stroke-width="1"/><rect width="20.087" height="1.099" transform="translate(443.068 804.651)" fill="#235192" stroke="#235192" stroke-width="1"/><rect width="20.087" height="1.099" transform="translate(443.068 811.736)" fill="#235192" stroke="#235192" stroke-width="1"/><path d="M27.971,5.857a2.274,2.274,0,1,0,2.823-2.2V.55a.55.55,0,1,0-1.1,0v3.1a2.275,2.275,0,0,0-1.724,2.2m3.448,0A1.174,1.174,0,1,1,29.695,4.82h1.1a1.175,1.175,0,0,1,.624,1.037" transform="translate(415.782 783)" fill="#235192" stroke="#235192" stroke-width="1"/><path d="M69.86,5.857a2.273,2.273,0,1,0,2.823-2.2V.55a.55.55,0,1,0-1.1,0v3.1a2.275,2.275,0,0,0-1.724,2.2m3.448,0A1.174,1.174,0,1,1,71.584,4.82h1.1a1.175,1.175,0,0,1,.624,1.037" transform="translate(380.979 783)" fill="#235192" stroke="#235192" stroke-width="1"/><path d="M111.747,5.857a2.274,2.274,0,1,0,2.823-2.2V.55a.55.55,0,1,0-1.1,0v3.1a2.275,2.275,0,0,0-1.724,2.2m3.448,0a1.174,1.174,0,1,1-1.724-1.037h1.1a1.175,1.175,0,0,1,.624,1.037" transform="translate(346.176 783)" fill="#235192" stroke="#235192" stroke-width="1"/></g></g></svg>