<svg xmlns="http://www.w3.org/2000/svg" width="40" height="40" viewBox="0 0 40 40"><g transform="translate(-69 -1403)"><rect width="40" height="40" transform="translate(69 1403)" fill="none"/><g transform="translate(7 -29)"><path d="M7.088,71.662l1.891-4.229-.865-.443A12.155,12.155,0,0,1,3.68,63.25a8.572,8.572,0,0,1-1.631-4.968,8.382,8.382,0,0,1,1.017-3.977,11.568,11.568,0,0,1,4.827-4.62,16.191,16.191,0,0,1,7.615-1.836,15.983,15.983,0,0,1,8.042,2.085A11.044,11.044,0,0,1,28.294,55.1l1.891-.787a13.08,13.08,0,0,0-5.6-6.144A18.033,18.033,0,0,0,15.507,45.8,17.571,17.571,0,0,0,4.631,49.377a12.781,12.781,0,0,0-3.372,3.962A10.433,10.433,0,0,0,0,58.282a10.628,10.628,0,0,0,2,6.147,13.878,13.878,0,0,0,4.325,3.913l-2.593,5.8,1.779-.2A58.583,58.583,0,0,0,15.67,71.782l-.588-1.962A59.839,59.839,0,0,1,7.088,71.662Z" transform="translate(63 1390.199)" fill="#235192" stroke="#235192" stroke-width="1"/><path d="M228.286,199.906a7.8,7.8,0,0,0,1.47-4.513,7.669,7.669,0,0,0-.924-3.632,9.909,9.909,0,0,0-4.125-3.979,13.176,13.176,0,0,0-6.2-1.5,12.7,12.7,0,0,0-7.866,2.59,9.328,9.328,0,0,0-2.459,2.891,7.67,7.67,0,0,0-.924,3.632,7.974,7.974,0,0,0,2.061,5.266,11.215,11.215,0,0,0,5.042,3.2,47.151,47.151,0,0,0,11.167,2.884l1.779.2-1.943-4.341A10.022,10.022,0,0,0,228.286,199.906Zm-4.7,1.366-.865.443,1.226,2.74a47.733,47.733,0,0,1-8.846-2.5l-.031-.012-.032-.01a9.2,9.2,0,0,1-4.178-2.621,5.917,5.917,0,0,1-1.555-3.918,5.618,5.618,0,0,1,.682-2.666,7.866,7.866,0,0,1,3.284-3.138,11.131,11.131,0,0,1,5.234-1.26,10.665,10.665,0,0,1,6.594,2.148,7.27,7.27,0,0,1,1.923,2.251,5.612,5.612,0,0,1,.683,2.666,5.751,5.751,0,0,1-1.1,3.334A8.271,8.271,0,0,1,223.588,201.273Z" transform="translate(-128.957 1260.092)" fill="#235192" stroke="#235192" stroke-width="1"/></g></g></svg>