<svg xmlns="http://www.w3.org/2000/svg" width="40" height="40.562" viewBox="0 0 40 40.562"><g transform="translate(-130 -899)"><rect width="40" height="40" transform="translate(130 899)" fill="none"/><g transform="translate(-59.691 -39.92)"><g transform="translate(201.014 949.795)"><path d="M10.155,102.078H3.777A3.781,3.781,0,0,0,0,105.855v4.86H13.932v-4.86a3.781,3.781,0,0,0-3.777-3.777" transform="translate(0 -94.787)" fill="#235192" stroke="#235192" stroke-width="1"/><path d="M54.777,6.577a3.289,3.289,0,1,0-3.289-3.289,3.292,3.292,0,0,0,3.289,3.289m0-6.149" transform="translate(-47.811 0)" fill="#235192" stroke="#235192" stroke-width="1"/></g><path d="M52.9,30.753v1.374a2.411,2.411,0,0,1,2.177,2.4V60.767a2.41,2.41,0,0,1-2.408,2.408H34.524A2.411,2.411,0,0,1,32.127,61H30.753a3.783,3.783,0,0,0,3.771,3.548H52.672a3.783,3.783,0,0,0,3.778-3.778V34.524A3.783,3.783,0,0,0,52.9,30.753" transform="translate(169.206 914.436)" fill="#235192" stroke="#235192" stroke-width="1"/><path d="M25.7,30.021V3.778A3.783,3.783,0,0,0,21.926,0h-11.6A.728.728,0,0,0,9.84.2l0,0L.2,10.022a.5.5,0,0,0-.055.068A.679.679,0,0,0,0,10.5V30.021A3.783,3.783,0,0,0,3.778,33.8H21.926A3.783,3.783,0,0,0,25.7,30.021M9.641,2.361V7.409A2.41,2.41,0,0,1,7.233,9.817H2.319ZM1.371,30.021V11.187H7.233a3.783,3.783,0,0,0,3.778-3.778V1.371H21.926a2.41,2.41,0,0,1,2.408,2.408V30.021a2.411,2.411,0,0,1-2.408,2.408H3.778a2.411,2.411,0,0,1-2.408-2.408" transform="translate(194.691 939.921)" fill="#235192" stroke="#235192" stroke-width="1"/></g></g></svg>