<svg xmlns="http://www.w3.org/2000/svg" width="40" height="40" viewBox="0 0 40 40"><g transform="translate(-134 -611)"><rect width="40" height="40" transform="translate(134 611)" fill="none"/><g transform="translate(-66 10.177)"><rect width="1.183" height="8.012" transform="translate(210.483 624.979)" fill="#235192" stroke="#235192" stroke-width="1"/><path d="M44.419,12.756A6.378,6.378,0,1,1,50.8,6.378a6.385,6.385,0,0,1-6.378,6.378m0-11.574a5.2,5.2,0,1,0,5.2,5.2,5.2,5.2,0,0,0-5.2-5.2" transform="translate(173.881 602.823)" fill="#235192" stroke="#235192" stroke-width="1"/><path d="M19.3,76.6a6.124,6.124,0,0,1,5.8,4.184l.27-.211a2.269,2.269,0,0,1,.773-.392A7.309,7.309,0,0,0,19.3,75.419H7.3a7.3,7.3,0,0,0-7.3,7.3v9.148H1.183V82.716A6.121,6.121,0,0,1,7.3,76.6Z" transform="translate(205 541.127)" fill="#235192" stroke="#235192" stroke-width="1"/><path d="M59.42,117.7H56.5a.447.447,0,0,1-.444-.392l-.306-2.484c-.108-.042-.216-.086-.322-.134l-1.973,1.54a.447.447,0,0,1-.591-.036l-2.068-2.068a.447.447,0,0,1-.036-.591l1.54-1.973q-.071-.159-.133-.322l-2.484-.306a.447.447,0,0,1-.392-.444v-2.924a.447.447,0,0,1,.392-.444l2.484-.306q.062-.163.133-.322l-1.54-1.974a.447.447,0,0,1,.036-.591l2.068-2.067a.446.446,0,0,1,.591-.036l1.973,1.54c.106-.047.214-.092.322-.133l.306-2.484a.447.447,0,0,1,.444-.392H59.42a.447.447,0,0,1,.444.392l.306,2.484q.163.062.322.133l1.973-1.54a.447.447,0,0,1,.591.036l2.068,2.067a.447.447,0,0,1,.036.591L63.62,106.5q.071.159.134.322l2.484.306a.447.447,0,0,1,.392.444v2.924a.447.447,0,0,1-.392.444l-2.484.306q-.062.163-.134.322l1.54,1.973a.447.447,0,0,1-.036.591L63.056,116.2a.447.447,0,0,1-.591.036l-1.973-1.54q-.159.072-.322.134l-.306,2.484a.447.447,0,0,1-.444.392m-2.529-.894h2.134l.292-2.366a.447.447,0,0,1,.3-.37,5.305,5.305,0,0,0,.727-.3.448.448,0,0,1,.476.047l1.879,1.467,1.509-1.509L62.745,111.9a.447.447,0,0,1-.046-.477,5.265,5.265,0,0,0,.3-.727.447.447,0,0,1,.37-.3l2.366-.292v-2.134l-2.366-.292a.447.447,0,0,1-.37-.3,5.27,5.27,0,0,0-.3-.727.447.447,0,0,1,.046-.477l1.467-1.879L62.7,102.776l-1.88,1.467a.448.448,0,0,1-.476.047,5.268,5.268,0,0,0-.727-.3.447.447,0,0,1-.3-.37l-.292-2.366H56.891l-.292,2.366a.447.447,0,0,1-.3.37,5.281,5.281,0,0,0-.727.3.447.447,0,0,1-.476-.047l-1.88-1.467L51.7,104.284l1.467,1.88a.446.446,0,0,1,.047.476,5.3,5.3,0,0,0-.3.727.447.447,0,0,1-.37.3l-2.366.292V110.1l2.366.292a.447.447,0,0,1,.37.3,5.3,5.3,0,0,0,.3.727.447.447,0,0,1-.047.477L51.7,113.775l1.509,1.509,1.879-1.467a.448.448,0,0,1,.476-.047,5.284,5.284,0,0,0,.727.3.447.447,0,0,1,.3.37Zm9.292-6.316h0Z" transform="translate(168.183 522.119)" fill="#235192" stroke="#235192" stroke-width="1"/><path d="M90.672,145.2a3.457,3.457,0,1,1,3.457-3.457,3.461,3.461,0,0,1-3.457,3.457m0-6.02a2.563,2.563,0,1,0,2.563,2.563,2.566,2.566,0,0,0-2.563-2.563" transform="translate(135.469 489.405)" fill="#235192" stroke="#235192" stroke-width="1"/></g></g></svg>