<svg xmlns="http://www.w3.org/2000/svg" width="40" height="40" viewBox="0 0 40 40"><g transform="translate(-103 -812)"><path d="M33.872,9.369a.521.521,0,0,0-.077-.308L28.3.246A.522.522,0,0,0,27.853,0H6.021a.522.522,0,0,0-.443.246L.079,9.061A.521.521,0,0,0,0,9.369c0,.007,0,.013,0,.02V28.016a.522.522,0,0,0,.522.522H33.352a.522.522,0,0,0,.522-.522V9.389c0-.007,0-.013,0-.02m-19.913.542h5.918v4.146H13.959ZM18.8,1.045l1.107,7.77H14.037l1.107-7.77ZM32.41,8.815H20.957a.522.522,0,0,0,0-.081l-1.1-7.69h7.7Zm-26.1-7.77h7.779l-1.1,7.69a.523.523,0,0,0,0,.081H1.464ZM32.829,27.494H1.045V9.911h11.87v5.081h8.008V9.911H32.829Z" transform="translate(106.5 817.5)" fill="#235192" stroke="#235192" stroke-width="1"/><rect width="40" height="40" transform="translate(103 812)" fill="none"/></g></svg>