<svg xmlns="http://www.w3.org/2000/svg" width="40" height="40" viewBox="0 0 40 40"><g transform="translate(-128 -1104)"><rect width="40" height="40" transform="translate(128 1104)" fill="none"/><path d="M30.319,13.154H19.81l9.536-6.623a.47.47,0,0,0,0-.769L21.295.085a.469.469,0,0,0-.706.208L15.394,13.143,10.2.293A.469.469,0,0,0,9.494.085L1.44,5.761a.47.47,0,0,0,0,.769l9.536,6.623H.47a.47.47,0,0,0-.47.47V36.471a.47.47,0,0,0,.47.47H30.319a.47.47,0,0,0,.47-.47V13.623a.47.47,0,0,0-.47-.47m-.47.939Zm-8.612-12.9,7.021,4.948-10.1,7.011H16.4Zm-11.687,0,4.835,11.959H12.625L2.53,6.142ZM.939,14.093ZM.939,36Zm10.2,0Zm7.564,0h0Zm.939,0Zm10.2,0Z" transform="translate(132.5 1105.5)" fill="#235192" stroke="#235192" stroke-width="1"/><g transform="translate(142.178 1132)" fill="#fff"><path d="M 6.505733966827393 5.074219226837158 L 4.355913639068604 5.074219226837158 L 4.355913639068604 3.090169429779053 L 6.505733966827393 3.090169429779053 L 6.505733966827393 5.074219226837158 Z M 6.329294204711914 0.6902493238449097 L 4.560020446777344 0.6902493238449097 C 4.564502716064453 0.584354043006897 4.568506240844727 0.4558377265930176 4.574363708496094 0.2678193151950836 L 4.576714038848877 0.192769318819046 L 4.576953887939453 0.1849593222141266 L 4.576953887939453 0.1771493256092072 C 4.576953887939453 -0.7727707028388977 4.779173851013184 -1.420730710029602 5.253123760223389 -1.989470720291138 C 5.581253528594971 -2.380085945129395 5.640645503997803 -2.450858592987061 6.917993545532227 -3.246922969818115 C 7.378128051757812 -3.527335166931152 7.804290771484375 -3.887175559997559 8.088777542114258 -4.235402584075928 C 8.407288551330566 -4.605705738067627 8.555684089660645 -5.035858154296875 8.555684089660645 -5.588330745697021 C 8.555684089660645 -6.962540626525879 7.528673648834229 -7.782970905303955 5.808434009552002 -7.782970905303955 C 4.768444061279297 -7.782970905303955 3.897693872451782 -7.365020751953125 3.419473886489868 -6.636300563812256 L 3.417083978652954 -6.632660865783691 L 3.414753913879395 -6.62898063659668 C 3.215713500976562 -6.313843727111816 3.10140323638916 -6.028639316558838 3.004016160964966 -5.563207626342773 L 0.8699817657470703 -5.787843227386475 C 1.088982701301575 -6.68189001083374 1.376108407974243 -7.194180488586426 1.945720791816711 -7.778656005859375 C 2.88739275932312 -8.719150543212891 4.248935222625732 -9.196001052856445 5.992633819580078 -9.196001052856445 C 7.428524017333984 -9.196001052856445 8.627763748168945 -8.86383056640625 9.460694313049316 -8.235410690307617 C 10.25095367431641 -7.63917064666748 10.66866397857666 -6.793890476226807 10.66866397857666 -5.790950775146484 C 10.66866397857666 -5.054890632629395 10.48076343536377 -4.438970565795898 10.11018371582031 -3.960310697555542 L 10.10692405700684 -3.956100702285767 L 10.10376358032227 -3.951830625534058 C 9.795124053955078 -3.535163402557373 9.32264518737793 -3.147445917129517 8.298974990844727 -2.470939636230469 C 7.339824676513672 -1.856929063796997 7.002381324768066 -1.570513248443604 6.730353832244873 -1.139800667762756 C 6.455254077911377 -0.7042406797409058 6.321533679962158 -0.1891106814146042 6.321533679962158 0.4350293278694153 C 6.321533679962158 0.517876148223877 6.32424259185791 0.6020474433898926 6.329294204711914 0.6902493238449097 Z" stroke="none"/><path d="M 6.005733966827393 4.574219226837158 L 6.005733966827393 3.590169429779053 L 4.855913639068604 3.590169429779053 L 4.855913639068604 4.574219226837158 L 6.005733966827393 4.574219226837158 M 5.827884197235107 0.1902493238449097 C 5.86041259765625 -0.4242333471775055 6.018223762512207 -0.9485970735549927 6.30760383605957 -1.406790733337402 C 6.656630992889404 -1.95942211151123 7.100409984588623 -2.297231197357178 8.025687217712402 -2.889657258987427 C 8.993363380432129 -3.52925705909729 9.432314872741699 -3.885390758514404 9.701983451843262 -4.24945068359375 L 9.714823722839355 -4.266390800476074 C 10.01596355438232 -4.655380725860596 10.16866397857666 -5.168310642242432 10.16866397857666 -5.790950775146484 C 10.16866397857666 -7.932840824127197 8.011453628540039 -8.696001052856445 5.992633819580078 -8.696001052856445 C 4.387842655181885 -8.696001052856445 3.145974159240723 -8.269121170043945 2.301484107971191 -7.427312850952148 C 1.95317530632019 -7.069664478302002 1.713099956512451 -6.749878883361816 1.521295666694641 -6.222053050994873 L 2.626117706298828 -6.105756282806396 C 2.712005853652954 -6.381996154785156 2.825084924697876 -6.631688594818115 2.992013931274414 -6.895980834960938 L 3.001443862915039 -6.910630702972412 C 3.573793888092041 -7.78277063369751 4.596893787384033 -8.282970428466797 5.808434009552002 -8.282970428466797 C 8.202633857727051 -8.282970428466797 9.055684089660645 -6.891000747680664 9.055684089660645 -5.588330745697021 C 9.055684089660645 -4.920982360839844 8.864758491516113 -4.373201370239258 8.472100257873535 -3.914314270019531 C 8.153635025024414 -3.52598762512207 7.683851718902588 -3.128418922424316 7.180169105529785 -2.821161985397339 C 5.972462177276611 -2.06847357749939 5.927249431610107 -2.014618635177612 5.637233734130859 -1.669380664825439 C 5.239274024963379 -1.191830635070801 5.076953887939453 -0.6568506956100464 5.076953887939453 0.1771493256092072 L 5.076953887939453 0.1902493238449097 L 5.827884197235107 0.1902493238449097 M 7.005733966827393 5.574219226837158 L 3.855913877487183 5.574219226837158 L 3.855913877487183 2.590169429779053 L 7.005733966827393 2.590169429779053 L 7.005733966827393 5.574219226837158 Z M 6.87679386138916 1.19024932384491 L 4.021693706512451 1.19024932384491 C 4.058533668518066 0.8034293055534363 4.058533668518066 0.766589343547821 4.076953887939453 0.1771493256092072 C 4.076953887939453 -0.8912206888198853 4.316413879394531 -1.646440625190735 4.869013786315918 -2.309560775756836 C 5.255834102630615 -2.770060777664185 5.384773731231689 -2.88058066368103 6.655754089355469 -3.672640562057495 C 7.079413890838623 -3.93052077293396 7.466233730316162 -4.262090682983398 7.705703735351562 -4.556810855865479 C 7.945163726806641 -4.833110809326172 8.055684089660645 -5.14625072479248 8.055684089660645 -5.588330745697021 C 8.055684089660645 -6.675110816955566 7.263613700866699 -7.282970905303955 5.808434009552002 -7.282970905303955 C 4.942693710327148 -7.282970905303955 4.224313735961914 -6.95141077041626 3.837493896484375 -6.361970901489258 C 3.616443872451782 -6.011990547180176 3.524343967437744 -5.717270851135254 3.413823843002319 -5.017310619354248 L 0.2640038728713989 -5.348870754241943 C 0.5218838453292847 -6.693530559539795 0.8534438610076904 -7.375070571899414 1.590243816375732 -8.130290985107422 C 2.621763944625854 -9.161820411682129 4.113793849945068 -9.696001052856445 5.992633819580078 -9.696001052856445 C 9.142463684082031 -9.696001052856445 11.16866397857666 -8.167140960693359 11.16866397857666 -5.790950775146484 C 11.16866397857666 -4.943630695343018 10.94762420654297 -4.225240707397461 10.50554370880127 -3.654220581054688 C 10.13714408874512 -3.156880617141724 9.602963447570801 -2.73322057723999 8.571443557739258 -2.051680564880371 C 7.650444030761719 -1.462240695953369 7.374134063720703 -1.222780704498291 7.153093814849854 -0.8728006482124329 C 6.932054042816162 -0.5228206515312195 6.821533679962158 -0.09915067255496979 6.821533679962158 0.4350293278694153 C 6.821533679962158 0.6376492977142334 6.839953899383545 0.8586893081665039 6.87679386138916 1.19024932384491 Z" stroke="none" fill="#fff"/></g></g></svg>