<svg xmlns="http://www.w3.org/2000/svg" width="40" height="40" viewBox="0 0 40 40"><g transform="translate(-124 -511)"><g transform="translate(-55 13.354)"><path d="M18,0A18,18,0,1,0,36,18,18.02,18.02,0,0,0,18,0m0,34.89A16.89,16.89,0,1,1,34.89,18,16.909,16.909,0,0,1,18,34.89" transform="translate(181 499.646)" fill="#235192" stroke="#235192" stroke-width="1"/><path d="M89.443,71.515a5.083,5.083,0,0,0-.122-7.737,6.589,6.589,0,0,0-4.344-1.122H79.323V79.789H81.3V72.73h3.674a7.073,7.073,0,0,0,4.467-1.214M81.3,64.458h3.523a5.292,5.292,0,0,1,3.092.637,3.1,3.1,0,0,1,1.272,2.574,3.008,3.008,0,0,1-1.1,2.384,4.4,4.4,0,0,1-3.063.874H81.3Z" transform="translate(114.257 446.927)" fill="#235192" stroke="#235192" stroke-width="1"/></g><rect width="40" height="40" transform="translate(124 511)" fill="none"/></g></svg>