<svg xmlns="http://www.w3.org/2000/svg" width="40" height="40" viewBox="0 0 40 40"><g transform="translate(-75 -208)"><rect width="40" height="40" transform="translate(75 208)" fill="none"/><g transform="translate(-282.152 110)"><path d="M31.463,15.118a7.778,7.778,0,0,0,9.875-9.982.529.529,0,0,0-.871-.195L37.059,8.349l-2.628-.987-.987-2.628,3.407-3.407a.529.529,0,0,0-.195-.871,7.778,7.778,0,0,0-9.982,9.875L16.124,20.882a7.778,7.778,0,0,0-9.875,9.982.529.529,0,0,0,.871.195l3.407-3.407,2.628.987.987,2.628-3.407,3.407a.529.529,0,0,0,.195.871,7.778,7.778,0,0,0,9.982-9.875ZM18.318,32.979a6.756,6.756,0,0,1-6.2,1.809l3.016-3.016a.529.529,0,0,0,.121-.559l-1.191-3.172a.528.528,0,0,0-.309-.309L10.58,26.542a.528.528,0,0,0-.559.121L7.005,29.678a6.72,6.72,0,0,1,9.056-7.691.528.528,0,0,0,.57-.117L27.663,10.838a.529.529,0,0,0,.117-.57,6.72,6.72,0,0,1,7.691-9.056L32.456,4.228a.528.528,0,0,0-.121.559l1.191,3.172a.529.529,0,0,0,.309.309l3.172,1.191a.528.528,0,0,0,.559-.121l3.015-3.015a6.72,6.72,0,0,1-9.056,7.691.529.529,0,0,0-.57.117L19.924,25.163a.529.529,0,0,0-.117.57,6.716,6.716,0,0,1-1.489,7.247" transform="translate(353.359 100)" fill="#235192" stroke="#235192" stroke-width="1"/></g></g></svg>