<svg xmlns="http://www.w3.org/2000/svg" width="40" height="40" viewBox="0 0 40 40"><g transform="translate(-101 -716)"><rect width="40" height="40" transform="translate(101 716)" fill="none"/><g transform="translate(-34 -0.001)"><g transform="translate(-55.426 36)"><path d="M135.1,53.566a3.821,3.821,0,0,0-3.816,3.816.408.408,0,1,0,.817,0,3,3,0,0,1,3-3,.408.408,0,0,0,0-.817" transform="translate(78.584 650.171)" fill="#235192" stroke="#235192" stroke-width="1"/><path d="M124.851,45.674,120.9,41.723a6.746,6.746,0,1,0-1.21,1.266l3.923,3.923Zm-9.381-2.126a5.8,5.8,0,1,1,5.8-5.8,5.806,5.806,0,0,1-5.8,5.8" transform="translate(98.502 670.089)" fill="#235192" stroke="#235192" stroke-width="1"/></g><rect width="1.183" height="8.012" transform="translate(145.483 740.157)" fill="#235192" stroke="#235192" stroke-width="1"/><path d="M44.419,12.756A6.378,6.378,0,1,1,50.8,6.378a6.385,6.385,0,0,1-6.378,6.378m0-11.574a5.2,5.2,0,1,0,5.2,5.2,5.2,5.2,0,0,0-5.2-5.2" transform="translate(108.881 718.001)" fill="#235192" stroke="#235192" stroke-width="1"/><path d="M19.3,76.6c2.363.086,5.45,2.443,5.45,5.184h1.254c0-2.944-3.144-6.29-6.7-6.367H7.3a7.3,7.3,0,0,0-7.3,7.3v9.148H1.183V82.716A6.121,6.121,0,0,1,7.3,76.6Z" transform="translate(140 656.305)" fill="#235192" stroke="#235192" stroke-width="1"/></g></g></svg>