<svg xmlns="http://www.w3.org/2000/svg" width="40.79" height="40" viewBox="0 0 40.79 40"><g transform="translate(-72.498 -987)"><rect width="40" height="40" transform="translate(73 987)" fill="none"/><g transform="translate(-188.5 -45.599)"><rect width="1.171" height="2.519" transform="matrix(0.985, -0.174, 0.174, 0.985, 290, 1042.077)" fill="#235192" stroke="#235192" stroke-width="1"/><path d="M1.263,7.487,28.022,2.769l.125.709,1.153-.2-.125-.71,7.384-1.3,1.057,5.991A2.777,2.777,0,0,0,36.953,11h1.825a1.6,1.6,0,0,1-.247-2.941.585.585,0,0,0,.306-.621L37.609.484a.585.585,0,0,0-.678-.475L.484,6.435a.585.585,0,0,0-.475.678L.694,11H1.883Z" transform="translate(261.5 1036.599)" fill="#235192" stroke="#235192" stroke-width="1"/><path d="M163.994,55.409l-.219-1.244-1.153.2.183,1.04Z" transform="translate(128.168 992.189)" fill="#235192" stroke="#235192" stroke-width="1"/><path d="M46.7,77.025a.585.585,0,0,0,.409-.558V69.405a.585.585,0,0,0-.585-.585H9.512a.585.585,0,0,0-.585.585v7.061a.585.585,0,0,0,.409.558,1.6,1.6,0,0,1,0,3.053.585.585,0,0,0-.409.558V87.7a.585.585,0,0,0,.585.585h37.01a.585.585,0,0,0,.585-.585V80.636a.585.585,0,0,0-.409-.558,1.6,1.6,0,0,1,0-3.053m-.762-.951a2.773,2.773,0,0,0,0,4.955v6.083h-7.5v-.72H37.269v.72H10.1V81.029a2.773,2.773,0,0,0,0-4.955V69.991H37.269v.72H38.44v-.72h7.5Z" transform="translate(254.181 980.174)" fill="#235192" stroke="#235192" stroke-width="1"/><path d="M-.431,0H1.822V2.519H-.431Z" transform="translate(291.343 1053.466)" fill="#235192"/><path d="M9.4-6.654a3.787,3.787,0,0,0-.709-1.515A4.136,4.136,0,0,0,5.208-9.708a4.485,4.485,0,0,0-3.2,1.148A5.407,5.407,0,0,0,.492-4.553,5.584,5.584,0,0,0,1.873-.619,4.593,4.593,0,0,0,5.244.64,4.225,4.225,0,0,0,8.6-.692,4.492,4.492,0,0,0,9.52-2.708L7.395-3.05a2.4,2.4,0,0,1-.379,1.087,2.1,2.1,0,0,1-1.784.831c-1.637,0-2.627-1.295-2.627-3.433a3.85,3.85,0,0,1,.867-2.7A2.3,2.3,0,0,1,5.2-7.949a1.944,1.944,0,0,1,1.71.806,2.642,2.642,0,0,1,.4.928Z" transform="translate(274.45 1062.635)" fill="#235192"/><path d="M-.431,0H1.822V2.519H-.431Z" transform="translate(291.343 1057.466)" fill="#235192"/><path d="M-.431,0H1.822V2.519H-.431Z" transform="translate(291.343 1061.466)" fill="#235192"/></g></g></svg>