<svg xmlns="http://www.w3.org/2000/svg" width="40" height="40" viewBox="0 0 40 40"><g transform="translate(-67 -972)"><rect width="40" height="40" transform="translate(67 972)" fill="none"/><g transform="translate(-366 150)"><path d="M56.194,43.3,56.02,30.447a.38.38,0,0,0-.761,0l-.167,12.309-9.967.15a.4.4,0,0,0,0,.794l10.515.158h.016a.547.547,0,0,0,.539-.554Z" transform="translate(397.361 798.698)" fill="#235192" stroke="#235192" stroke-width="1"/><path d="M18,36A18,18,0,1,1,36,18,18.02,18.02,0,0,1,18,36M18,1.11A16.89,16.89,0,1,0,34.89,18,16.909,16.909,0,0,0,18,1.11" transform="translate(435 824)" fill="#235192" stroke="#235192" stroke-width="1"/></g></g></svg>