<svg xmlns="http://www.w3.org/2000/svg" width="20" height="20" viewBox="0 0 20 20"><g transform="translate(0.502)"><g transform="translate(-0.502 3)"><g transform="translate(0 4.67)"><path d="M8.586,9.246l-10-10,.66-.66,10,10Z" transform="translate(1.414 1.414)" fill="#fefefe"/><path d="M9.34,0,0,9.34" transform="translate(10 0.66)" fill="#fefefe"/><path d="M-.754,9.246l-.66-.66,10-10,.66.66Z" transform="translate(10.754 1.414)" fill="#fefefe"/></g><g transform="translate(0 0)"><path d="M8.586,9.246l-10-10,.66-.66,10,10Z" transform="translate(1.414 1.414)" fill="#fefefe"/><path d="M9.34,0,0,9.34" transform="translate(10 0.66)" fill="#fefefe"/><path d="M-.754,9.246l-.66-.66,10-10,.66.66Z" transform="translate(10.754 1.414)" fill="#fefefe"/></g></g><rect width="20" height="20" transform="translate(-0.502)" fill="none"/></g></svg>