<svg xmlns="http://www.w3.org/2000/svg" width="41" height="40" viewBox="0 0 41 40"><g transform="translate(-392.5 -2240)"><g transform="translate(353 2182.7)"><path d="M103.545,208.5a2.745,2.745,0,1,0,2.745,2.745A2.755,2.755,0,0,0,103.545,208.5Zm0,4.309a1.564,1.564,0,1,1,1.564-1.564A1.564,1.564,0,0,1,103.545,212.809Z" transform="translate(-49.745 -120.436)" fill="#235192" stroke="#1e467e" stroke-linecap="round" stroke-linejoin="round" stroke-width="1"/><path d="M176.045,208.5a2.745,2.745,0,1,0,2.745,2.745A2.755,2.755,0,0,0,176.045,208.5Zm0,4.309a1.564,1.564,0,1,1,1.564-1.564A1.564,1.564,0,0,1,176.045,212.809Z" transform="translate(-109.064 -120.436)" fill="#235192" stroke="#1e467e" stroke-linecap="round" stroke-linejoin="round" stroke-width="1"/><path d="M117.864,76.9a3.114,3.114,0,0,0-3.036,2.382l-.782,3.2H100.573a8.4,8.4,0,0,1-.091,1.182h13.273l-3.473,14.364H93.409L91.9,92.191c-.382.036-.764.073-1.164.073H90.7l1.818,6.964h18.709l4.745-19.655a1.945,1.945,0,0,1,1.891-1.491h3.618V76.9Z" transform="translate(-41.482 -12.764)" fill="#235192" stroke="#1e467e" stroke-linecap="round" stroke-linejoin="round" stroke-width="1"/><g transform="translate(40 61.3)"><path d="M57.6,69.645a8.346,8.346,0,0,0-16.691-.091H40l1.491,2.091,1.491-2.091h-.891a7.145,7.145,0,1,1,1.364,4.309l-.964.691A8.355,8.355,0,0,0,57.6,69.645Z" transform="translate(-40 -61.3)" fill="#235192" stroke="#1e467e" stroke-linecap="round" stroke-linejoin="round" stroke-width="1"/><path d="M87.6,79.2v5.345L90.873,87.8l.836-.836-2.927-2.909V79.2Z" transform="translate(-78.945 -75.945)" fill="#235192" stroke="#1e467e" stroke-linecap="round" stroke-linejoin="round" stroke-width="1"/></g></g><rect width="40" height="40" transform="translate(393 2240)" fill="none"/></g></svg>