<svg xmlns="http://www.w3.org/2000/svg" width="40" height="40" viewBox="0 0 40 40"><g transform="translate(-243 -517)"><rect width="40" height="40" transform="translate(243 517)" fill="none"/><g transform="translate(-176.296 23.564)"><path d="M19.475,32.676H3.375A3.379,3.379,0,0,0,0,36.051V67.31a3.379,3.379,0,0,0,3.375,3.375h16.1A3.379,3.379,0,0,0,22.85,67.31V36.051a3.379,3.379,0,0,0-3.375-3.375M21.519,67.31a2.047,2.047,0,0,1-2.044,2.044H3.375A2.047,2.047,0,0,1,1.33,67.31V36.051a2.047,2.047,0,0,1,2.045-2.044H5.185l.222.783a2.2,2.2,0,0,0,2.157,1.834h7.721a2.2,2.2,0,0,0,2.157-1.834l.222-.783h1.81a2.047,2.047,0,0,1,2.044,2.044Z" transform="translate(427.296 461.76)" fill="#235192" stroke="#235192" stroke-width="1"/><g transform="translate(431.058 506.277)"><path d="M16.722,6.436a3.311,3.311,0,0,0,4.2-4.249.225.225,0,0,0-.371-.083L19.1,3.555,17.565,2.016,19.016.565a.225.225,0,0,0-.083-.371,3.311,3.311,0,0,0-4.249,4.2L10.191,8.89a3.311,3.311,0,0,0-4.2,4.249.225.225,0,0,0,.371.083l1.451-1.451,1.539,1.539L7.9,14.762a.225.225,0,0,0,.083.371,3.311,3.311,0,0,0,4.249-4.2Zm-5.6,7.6a2.876,2.876,0,0,1-2.641.77l1.284-1.284a17.9,17.9,0,0,0-2.175-2.175L6.31,12.635A2.861,2.861,0,0,1,10.165,9.36c.084.033.179.014,4.939-4.746.064-.064-.126-2.518.684-3.328a2.875,2.875,0,0,1,2.641-.77L17.144,1.8A17.908,17.908,0,0,0,19.32,3.975L20.6,2.692a2.861,2.861,0,0,1-3.855,3.274.225.225,0,0,0-.243.05l-4.7,4.7a.225.225,0,0,0-.05.243,2.859,2.859,0,0,1-.634,3.085" transform="translate(-5.794 0)" fill="#235192" stroke="#235192" stroke-width="1.4"/></g></g></g></svg>