<svg xmlns="http://www.w3.org/2000/svg" width="40" height="40" viewBox="0 0 40 40"><g transform="translate(-212 -104)"><rect width="40" height="40" transform="translate(212 104)" fill="none"/><g transform="translate(-138 -7)"><path d="M29.97,29.152,25.324,21.1a13.075,13.075,0,1,0-20.616,0L.062,29.152a.46.46,0,0,0,.421.69l5.444-.27,2.489,4.85a.46.46,0,0,0,.4.25h.011a.46.46,0,0,0,.4-.23l4.811-8.332c.324.024.65.041.981.041s.657-.016.981-.041l4.811,8.332a.46.46,0,0,0,.4.23h.011a.46.46,0,0,0,.4-.25l2.489-4.85,5.444.27a.46.46,0,0,0,.421-.69M8.85,33.25,6.611,28.887a.46.46,0,0,0-.409-.25H6.179l-4.9.242,4.055-7.024A13.066,13.066,0,0,0,13.035,26ZM2.861,13.075A12.155,12.155,0,1,1,15.016,25.23,12.168,12.168,0,0,1,2.861,13.075M23.853,28.638a.459.459,0,0,0-.432.249L21.182,33.25,17,26a13.065,13.065,0,0,0,7.7-4.144L28.75,28.88Z" transform="translate(355 114)" fill="#235192" stroke="#235192" stroke-width="1"/><path d="M41.586,18.738a10.2,10.2,0,1,0,10.2,10.2,10.212,10.212,0,0,0-10.2-10.2m0,19.48a9.28,9.28,0,1,1,9.28-9.28,9.291,9.291,0,0,1-9.28,9.28" transform="translate(328.429 98.137)" fill="#235192" stroke="#235192" stroke-width="1"/></g></g></svg>