<svg xmlns="http://www.w3.org/2000/svg" xmlns:xlink="http://www.w3.org/1999/xlink" width="45" height="45" viewBox="0 0 45 45">
  <defs>
    <clipPath id="clip-path">
      <rect id="Rectangle_2146" data-name="Rectangle 2146" width="44.807" height="29.333" fill="#235192" stroke="#235192" stroke-width="0.4"/>
    </clipPath>
  </defs>
  <g id="Group_850" data-name="Group 850" transform="translate(-436 -492)">
    <g id="Group_834" data-name="Group 834" transform="translate(436 499.841)">
      <g id="Group_833" data-name="Group 833" clip-path="url(#clip-path)">
        <path id="Path_272" data-name="Path 272" d="M87.578,56.744,83.9,47.373a.36.36,0,0,0-.67,0l-3.69,9.371h1.031l1.187-3.087h3.6l1.187,3.087Zm-5.441-4.055,1.427-3.546,1.417,3.546Z" transform="translate(-64.439 -38.194)" fill="#235192" stroke="#235192" stroke-width="0.4"/>
        <path id="Path_273" data-name="Path 273" d="M44.7,55.162v-.757a.255.255,0,0,0-.456-.158,3.011,3.011,0,0,1-4.808.019,4.047,4.047,0,0,1-1.01-2.682c0-2.163,1.557-3.991,3.4-3.991a3.253,3.253,0,0,1,2.417,1.252.255.255,0,0,0,.457-.156v-.75l-.057-.061a3.863,3.863,0,0,0-2.785-1.253,4.664,4.664,0,0,0-4.359,4.91c0,2.648,1.991,4.886,4.348,4.886a4.015,4.015,0,0,0,2.788-1.2Z" transform="translate(-30.377 -37.774)" fill="#235192" stroke="#235192" stroke-width="0.4"/>
        <path id="Path_274" data-name="Path 274" d="M169.282,48.471a4.7,4.7,0,0,0-3.534-1.207h-1.437v9.553h1.437a4.733,4.733,0,0,0,3.585-1.27,4.8,4.8,0,0,0,1.47-3.495,4.845,4.845,0,0,0-1.521-3.582m-.631,6.338a3.792,3.792,0,0,1-2.916,1.041h-.421V48.231h.421a3.808,3.808,0,0,1,2.812.938,3.916,3.916,0,0,1,.1,5.64" transform="translate(-133.115 -38.291)" fill="#235192" stroke="#235192" stroke-width="0.4"/>
        <path id="Path_275" data-name="Path 275" d="M134.069,49.9a2.476,2.476,0,0,0-1.008-2.133,3.554,3.554,0,0,0-2.207-.5h-1.771v9.553h1V52.494h.39l2.979,4.323h1.18l-3-4.336a2.45,2.45,0,0,0,2.433-2.584m-3.982,1.63v-3.3h.87a3.014,3.014,0,0,1,1.264.188,1.546,1.546,0,0,1,.844,1.454,1.62,1.62,0,0,1-.569,1.282,2.087,2.087,0,0,1-1.46.372Z" transform="translate(-104.576 -38.291)" fill="#235192" stroke="#235192" stroke-width="0.4"/>
        <path id="Path_276" data-name="Path 276" d="M40.916,0H3.89A3.9,3.9,0,0,0,0,3.891V25.444a3.9,3.9,0,0,0,3.89,3.89H40.916a3.894,3.894,0,0,0,3.89-3.89V3.891A3.9,3.9,0,0,0,40.916,0m2.751,25.443a2.754,2.754,0,0,1-2.751,2.751H3.89a2.754,2.754,0,0,1-2.751-2.751V3.891A2.754,2.754,0,0,1,3.89,1.14H40.916a2.754,2.754,0,0,1,2.751,2.751Z" transform="translate(0 -0.001)" fill="#235192" stroke="#235192" stroke-width="0.4"/>
        <rect id="Rectangle_2137" data-name="Rectangle 2137" width="2.514" height="2.514" transform="translate(4.004 22.569)" fill="#235192" stroke="#235192" stroke-width="0.4"/>
        <rect id="Rectangle_2138" data-name="Rectangle 2138" width="2.514" height="2.514" transform="translate(7.979 22.569)" fill="#235192" stroke="#235192" stroke-width="0.4"/>
        <rect id="Rectangle_2139" data-name="Rectangle 2139" width="2.514" height="2.514" transform="translate(11.954 22.569)" fill="#235192" stroke="#235192" stroke-width="0.4"/>
        <rect id="Rectangle_2140" data-name="Rectangle 2140" width="2.514" height="2.514" transform="translate(17.171 22.569)" fill="#235192" stroke="#235192" stroke-width="0.4"/>
        <rect id="Rectangle_2141" data-name="Rectangle 2141" width="2.514" height="2.514" transform="translate(21.146 22.569)" fill="#235192" stroke="#235192" stroke-width="0.4"/>
        <rect id="Rectangle_2142" data-name="Rectangle 2142" width="2.514" height="2.514" transform="translate(25.121 22.569)" fill="#235192" stroke="#235192" stroke-width="0.4"/>
        <rect id="Rectangle_2143" data-name="Rectangle 2143" width="2.514" height="2.514" transform="translate(30.338 22.569)" fill="#235192" stroke="#235192" stroke-width="0.4"/>
        <rect id="Rectangle_2144" data-name="Rectangle 2144" width="2.514" height="2.514" transform="translate(34.314 22.569)" fill="#235192" stroke="#235192" stroke-width="0.4"/>
        <rect id="Rectangle_2145" data-name="Rectangle 2145" width="2.514" height="2.514" transform="translate(38.289 22.569)" fill="#235192" stroke="#235192" stroke-width="0.4"/>
        <path id="Path_277" data-name="Path 277" d="M28.892,20.68H22.583V19.094L19.4,21.674h9.487Z" transform="translate(-15.72 -15.469)" fill="#235192" stroke="#235192" stroke-width="0.4"/>
      </g>
    </g>
    <rect id="Rectangle_2147" data-name="Rectangle 2147" width="45" height="45" transform="translate(436 492)" fill="none"/>
  </g>
</svg>
