<svg xmlns="http://www.w3.org/2000/svg" width="45" height="45" viewBox="0 0 45 45">
  <g id="Group_845" data-name="Group 845" transform="translate(-243 -517)">
    <rect id="Rectangle_1296" data-name="Rectangle 1296" width="45" height="45" transform="translate(243 517)" fill="none"/>
    <g id="Group_431" data-name="Group 431" transform="translate(252 518.125)">
      <path id="Path_127" data-name="Path 127" d="M21.909,32.676H3.8a3.8,3.8,0,0,0-3.8,3.8V71.639a3.8,3.8,0,0,0,3.8,3.8H21.909a3.8,3.8,0,0,0,3.8-3.8V36.473a3.8,3.8,0,0,0-3.8-3.8m2.3,38.963a2.3,2.3,0,0,1-2.3,2.3H3.8a2.3,2.3,0,0,1-2.3-2.3V36.473a2.3,2.3,0,0,1,2.3-2.3H5.833l.25.881A2.471,2.471,0,0,0,8.51,37.118H17.2a2.471,2.471,0,0,0,2.427-2.064l.25-.881h2.036a2.3,2.3,0,0,1,2.3,2.3Z" transform="translate(0 -32.676)" fill="#235192" stroke="#235192" stroke-width="0.4"/>
      <path id="cart" d="M18.773,26.232a3.589,3.589,0,0,1-3.552-3.1L14.163,14.29a.983.983,0,0,0-.983-.831h-.151a.529.529,0,1,1,0-1.058h.151a2.045,2.045,0,0,1,2.041,1.814l.076.454h12.4a1.9,1.9,0,0,1,1.512.68,2.164,2.164,0,0,1,.453,1.663l-.6,3.25a3.627,3.627,0,0,1-3.477,2.948H16.355l.151.3a2.453,2.453,0,0,0,2.343,1.663H26.71a.529.529,0,0,1,0,1.058ZM16.2,22.15h9.448a2.381,2.381,0,0,0,2.419-2.116l.6-3.326v-.151a1,1,0,0,0-.983-.983H15.448Zm1.436,4.837A1.512,1.512,0,1,1,16.128,28.5,1.516,1.516,0,0,1,17.64,26.988Zm7.558,0A1.512,1.512,0,1,1,23.686,28.5,1.516,1.516,0,0,1,25.2,26.988Z" transform="translate(-8.235 0.175)" fill="#235192" stroke="#235192" stroke-width="0.4"/>
    </g>
  </g>
</svg>
