<svg xmlns="http://www.w3.org/2000/svg" width="35" height="35" viewBox="0 0 35 35"><g transform="translate(-387 -3727)"><circle cx="17.5" cy="17.5" r="17.5" transform="translate(387 3727)" fill="#235192"/><path d="M13.225,18.839a9.033,9.033,0,0,1-1.849-.2,14.6,14.6,0,0,1-7.082-4.072l-.013-.013.208-.215-.211.211A14.6,14.6,0,0,1,.2,7.463c-.491-2.34-.073-4.38,1.145-5.6L2.485.726A2.162,2.162,0,0,1,4.107,0,2.282,2.282,0,0,1,5.728.936l.014.019L7.351,3.262a1.758,1.758,0,0,1-.034,2.386L6.4,6.569c-.225.225-.137.586.064,1.059l.043.1a7.3,7.3,0,0,0,1.922,2.676l.006.006a7.3,7.3,0,0,0,2.676,1.922l.1.043c.473.2.834.289,1.059.064l.921-.921a1.755,1.755,0,0,1,2.38-.038L17.9,13.111a2.283,2.283,0,0,1,.934,1.621,2.162,2.162,0,0,1-.724,1.622l-1.139,1.139a5.187,5.187,0,0,1-3.749,1.346M4.708,14.134h0a14.007,14.007,0,0,0,6.79,3.918c2.139.448,3.981.09,5.053-.983l1.139-1.139a1.568,1.568,0,0,0,.549-1.17,1.7,1.7,0,0,0-.707-1.181l-2.3-1.6c-1-.66-1.467-.189-1.622-.034l-.921.921c-.557.557-1.339.224-1.715.064l-.1-.042a7.839,7.839,0,0,1-2.872-2.054A7.838,7.838,0,0,1,5.952,7.962l-.042-.1c-.16-.376-.493-1.159.064-1.716l.921-.921c.155-.155.626-.626-.038-1.627l-1.6-2.292A1.705,1.705,0,0,0,4.078.6a1.566,1.566,0,0,0-1.17.549L1.769,2.287C.7,3.36.338,5.2.786,7.34A14,14,0,0,0,4.7,14.127Z" transform="translate(394.777 3734.777)" fill="#fff" stroke="#fff" stroke-width="1"/></g></svg>