<svg xmlns="http://www.w3.org/2000/svg" width="20" height="20" viewBox="0 0 20 20"><g transform="translate(-74.839 -431.839)"><rect width="20" height="20" transform="translate(74.839 431.839)" fill="none"/><g transform="translate(75.248 433.736)"><path d="M133.931,38.773a.919.919,0,1,0,.919.92.921.921,0,0,0-.919-.92" transform="translate(-128.304 -32.71)" fill="#fff" stroke="#fff" stroke-width="0.3"/><path d="M159.931,38.773a.919.919,0,1,0,.919.92.921.921,0,0,0-.919-.92" transform="translate(-150.405 -32.71)" fill="#fff" stroke="#fff" stroke-width="0.3"/><g transform="translate(0 0)"><path d="M112.56,0c-5.116,0-9.278,3.04-9.278,6.777,0,3.405,3.352,6.213,7.892,6.7a3.62,3.62,0,0,1-.74,1.375.525.525,0,0,0,.368.867q.135.008.269.008a4.682,4.682,0,0,0,4.1-2.446c3.936-.838,6.663-3.485,6.663-6.5,0-3.737-4.162-6.777-9.278-6.777m2.163,12.3a.525.525,0,0,0-.377.292,3.64,3.64,0,0,1-2.483,2,4.707,4.707,0,0,0,.463-1.518.525.525,0,0,0-.489-.591c-4.208-.257-7.505-2.762-7.505-5.7,0-3.158,3.691-5.727,8.228-5.727s8.228,2.569,8.228,5.727c0,2.572-2.494,4.844-6.065,5.525" transform="translate(-103.034 0.249)" fill="#fff" stroke="#fff" stroke-width="0.3"/><path d="M110.819,15.723c-.093,0-.189,0-.283-.008a.773.773,0,0,1-.542-1.276,3.348,3.348,0,0,0,.6-1c-4.544-.6-7.809-3.468-7.809-6.911a5.446,5.446,0,0,1,.764-2.76,7.354,7.354,0,0,1,2.058-2.23,12.059,12.059,0,0,1,13.407,0,7.354,7.354,0,0,1,2.058,2.23,5.446,5.446,0,0,1,.764,2.76,5.392,5.392,0,0,1-.51,2.276,6.678,6.678,0,0,1-1.42,1.971,9.938,9.938,0,0,1-4.819,2.475,4.944,4.944,0,0,1-2.347,2.083A4.881,4.881,0,0,1,110.819,15.723ZM112.308-.005A10.912,10.912,0,0,0,105.9,1.934a5.745,5.745,0,0,0-2.619,4.59,5,5,0,0,0,.567,2.3,6.411,6.411,0,0,0,1.588,1.953,10.287,10.287,0,0,0,5.515,2.2l.292.031-.08.283a3.846,3.846,0,0,1-.791,1.47.277.277,0,0,0,.194.457,4.387,4.387,0,0,0,1.98-.346A4.444,4.444,0,0,0,114.7,12.91l.055-.1.112-.024a10.707,10.707,0,0,0,2.641-.924,8.375,8.375,0,0,0,2.046-1.446,6.184,6.184,0,0,0,1.316-1.824,4.9,4.9,0,0,0,.465-2.068,5.745,5.745,0,0,0-2.619-4.59A10.912,10.912,0,0,0,112.308-.005Zm-1.154,14.7.236-.47a4.452,4.452,0,0,0,.438-1.438.277.277,0,0,0-.258-.312,10.113,10.113,0,0,1-5.466-1.9,5.166,5.166,0,0,1-2.272-4.056,4.484,4.484,0,0,1,.684-2.356,6.373,6.373,0,0,1,1.835-1.9,11.155,11.155,0,0,1,11.914,0,6.373,6.373,0,0,1,1.835,1.9,4.484,4.484,0,0,1,.684,2.356c0,2.693-2.577,5.065-6.266,5.768a.278.278,0,0,0-.2.154,3.871,3.871,0,0,1-1.991,1.917,3.914,3.914,0,0,1-.661.214Zm1.154-13.649a10,10,0,0,0-5.674,1.635,4.769,4.769,0,0,0-2.306,3.844,4.686,4.686,0,0,0,2.076,3.661,9.614,9.614,0,0,0,5.2,1.8.773.773,0,0,1,.72.87,4.972,4.972,0,0,1-.267,1.09l.08-.033a3.376,3.376,0,0,0,1.737-1.672.776.776,0,0,1,.555-.43c3.452-.658,5.863-2.829,5.863-5.281a4.769,4.769,0,0,0-2.306-3.844A10,10,0,0,0,112.308,1.045Z" transform="translate(-102.782 0.501)" fill="#fff"/><path d="M185.931,38.773a.919.919,0,1,0,.919.92.921.921,0,0,0-.919-.92" transform="translate(-172.505 -32.71)" fill="#fff"/><path d="M185.679,40.608a1.167,1.167,0,1,1,1.167-1.167A1.169,1.169,0,0,1,185.679,40.608Zm0-1.839a.671.671,0,1,0,.671.672A.672.672,0,0,0,185.679,38.769Z" transform="translate(-172.253 -32.458)" fill="#fff"/></g></g></g></svg>